# This file uses centimeters as units for non-parametric coordinates.

v 0.181645 0.371487 -0.042613
v 0.154434 0.371487 -0.081054
v 0.112053 0.371487 -0.111562
v 0.058649 0.371487 -0.131149
v -0.000549 0.371487 -0.137898
v -0.059748 0.371487 -0.131149
v -0.113151 0.371487 -0.111562
v -0.155533 0.371487 -0.081054
v -0.182743 0.371487 -0.042613
v -0.192119 0.371487 0.000000
v -0.182743 0.371487 0.042613
v -0.155533 0.371487 0.081054
v -0.113151 0.371487 0.111562
v -0.059748 0.371487 0.131149
v -0.000549 0.371487 0.137898
v 0.058649 0.371487 0.131149
v 0.112053 0.371487 0.111562
v 0.154434 0.371487 0.081054
v 0.181645 0.371487 0.042613
v 0.191021 0.371487 0.000000
v 0.181645 1.559736 -0.042613
v 0.154434 1.559736 -0.081054
v 0.112053 1.559736 -0.111562
v 0.058649 1.559736 -0.131149
v -0.000549 1.559736 -0.137898
v -0.059748 1.559736 -0.131149
v -0.113151 1.559736 -0.111562
v -0.155533 1.559736 -0.081054
v -0.182743 1.559736 -0.042613
v -0.192119 1.559736 0.000000
v -0.182743 1.559736 0.042613
v -0.155533 1.559736 0.081054
v -0.113151 1.559736 0.111562
v -0.059748 1.559736 0.131149
v -0.000549 1.559736 0.137898
v 0.058649 1.559736 0.131149
v 0.112053 1.559736 0.111562
v 0.154434 1.559736 0.081054
v 0.181645 1.559736 0.042613
v 0.191021 1.559736 0.000000
v 0.151279 1.203262 -0.042613
v 0.159092 1.203262 0.000000
v 0.151279 1.203262 0.042613
v 0.128604 1.203262 0.081054
v 0.093286 1.203262 0.111562
v 0.048783 1.203262 0.131149
v -0.000549 1.203262 0.137898
v -0.049881 1.203262 0.131149
v -0.094384 1.203262 0.111562
v -0.129702 1.203262 0.081054
v -0.152377 1.203262 0.042613
v -0.160191 1.203262 0.000000
v -0.152377 1.203262 -0.042613
v -0.129702 1.203262 -0.081054
v -0.094384 1.203262 -0.111562
v -0.049881 1.203262 -0.131149
v -0.000549 1.203262 -0.137898
v 0.048783 1.203262 -0.131149
v 0.093286 1.203262 -0.111562
v 0.128604 1.203262 -0.081054
v 0.151279 0.704197 -0.042613
v 0.159092 0.704197 0.000000
v 0.151279 0.704197 0.042613
v 0.128604 0.704197 0.081054
v 0.093286 0.704197 0.111562
v 0.048783 0.704197 0.131149
v -0.000549 0.704197 0.137898
v -0.049881 0.704197 0.131149
v -0.094384 0.704197 0.111562
v -0.129702 0.704197 0.081054
v -0.152377 0.704197 0.042613
v -0.160191 0.704197 0.000000
v -0.152377 0.704197 -0.042613
v -0.129702 0.704197 -0.081054
v -0.094384 0.704197 -0.111562
v -0.049881 0.704197 -0.131149
v -0.000549 0.704197 -0.137898
v 0.048783 0.704197 -0.131149
v 0.093286 0.704197 -0.111562
v 0.128604 0.704197 -0.081054
v -0.622222 1.546944 0.077964
v 0.622222 1.546944 0.077964
v -0.622222 1.780278 0.077964
v 0.622222 1.780278 0.077964
v -0.622222 1.780278 -0.077964
v 0.622222 1.780278 -0.077964
v -0.622222 1.546944 -0.077964
v 0.622222 1.546944 -0.077964
v 0.248889 1.561697 0.166281
v 0.248889 1.706883 0.166281
v 0.248889 1.706883 -0.166281
v 0.248889 1.561697 -0.166281
v -0.273778 1.561697 0.166281
v -0.273778 1.706883 0.166281
v -0.273778 1.706883 -0.166281
v -0.273778 1.561697 -0.166281
v -0.012444 1.560848 0.166281
v -0.012444 1.693071 0.166281
v -0.012444 1.693071 -0.166281
v -0.012444 1.560848 -0.166281
v -0.336584 1.669425 0.012644
v 0.330083 1.669425 0.012644
v -0.025473 10.992389 0.012644
v 0.018972 10.992389 0.012644
v -0.025473 10.992389 -0.001675
v 0.018972 10.992389 -0.001675
v -0.336584 1.669425 -0.001675
v 0.330083 1.669425 -0.001675
v -0.336584 4.273525 0.012644
v -0.336584 4.273525 -0.001675
v 0.330083 4.273525 -0.001675
v 0.330083 4.273525 0.012644
v -0.303991 7.986235 -0.001675
v -0.303991 7.986235 0.012644
v 0.297490 7.986235 0.012644
v 0.297490 7.986235 -0.001675
v -0.269917 9.487818 -0.001675
v -0.269917 9.487818 0.012644
v 0.263416 9.487818 0.012644
v 0.263416 9.487818 -0.001675
v -0.199547 10.562404 -0.001675
v -0.199547 10.562404 0.012644
v 0.193046 10.562404 0.012644
v 0.193046 10.562404 -0.001675
v -0.003250 1.669425 0.046463
v -0.003250 4.273525 0.046463
v -0.003250 7.986235 0.046463
v -0.003250 9.487818 0.046463
v -0.003250 10.562404 0.046463
v -0.003250 10.992389 0.012644
v -0.003250 10.992389 -0.001675
v -0.003250 10.562404 -0.035494
v -0.003250 9.487818 -0.035494
v -0.003250 7.986235 -0.035494
v -0.003250 4.273525 -0.035494
v -0.003250 1.669425 -0.035494
v -0.451129 0.269609 -0.198722
v -0.382867 0.152547 -0.198722
v -0.276547 0.059646 -0.198722
v -0.142576 0.000000 -0.198722
v 0.005932 -0.020553 -0.198722
v 0.154440 0.000000 -0.198722
v 0.288411 0.059646 -0.198722
v 0.394731 0.152547 -0.198722
v 0.462993 0.269609 -0.198722
v -0.451129 0.269609 0.198722
v -0.382867 0.152547 0.198722
v -0.276547 0.059646 0.198722
v -0.142576 0.000000 0.198722
v 0.005932 -0.020553 0.198722
v 0.154440 0.000000 0.198722
v 0.288411 0.059646 0.198722
v 0.394731 0.152547 0.198722
v 0.462993 0.269609 0.198722
v -0.465243 0.347473 -0.198722
v -0.456630 0.383727 -0.177542
v -0.424281 0.399374 -0.128467
v -0.424281 0.399374 0.128467
v -0.456630 0.383727 0.177542
v -0.465243 0.347473 0.198722
v 0.436145 0.399374 -0.128467
v 0.468493 0.383727 -0.177542
v 0.477106 0.347473 -0.198722
v 0.477106 0.347473 0.198722
v 0.468493 0.383727 0.177542
v 0.436145 0.399374 0.128467
v 0.005932 0.349407 -0.198722
v 0.005932 0.384739 -0.178309
v 0.005932 0.399374 -0.129027
v 0.005932 0.349407 0.198722
v 0.005932 0.384739 0.178309
v 0.005932 0.399374 0.129027
vt 0.633663 0.000207
vt 0.638560 0.000527
vt 0.637727 0.036660
vt 0.632879 0.036484
vt 0.643997 0.000925
vt 0.642790 0.036873
vt 0.649939 0.001345
vt 0.648057 0.037099
vt 0.656192 0.001748
vt 0.653444 0.037320
vt 0.662487 0.002103
vt 0.658819 0.037538
vt 0.668524 0.002443
vt 0.664060 0.037745
vt 0.674092 0.002798
vt 0.669082 0.037959
vt 0.679131 0.003222
vt 0.673872 0.038203
vt 0.574640 0.000790
vt 0.577595 0.036296
vt 0.579290 0.000566
vt 0.582269 0.036219
vt 0.584292 0.000487
vt 0.587093 0.036201
vt 0.589817 0.000482
vt 0.592145 0.036218
vt 0.595814 0.000493
vt 0.597414 0.036245
vt 0.602074 0.000476
vt 0.602816 0.036262
vt 0.608308 0.000382
vt 0.608225 0.036272
vt 0.614243 0.000244
vt 0.613513 0.036269
vt 0.619681 0.000097
vt 0.618593 0.036267
vt 0.624582 0.000001
vt 0.623452 0.036291
vt 0.629124 0.000019
vt 0.628167 0.036362
vt 0.631447 0.129695
vt 0.636369 0.129555
vt 0.641834 0.129355
vt 0.647806 0.129147
vt 0.654085 0.128962
vt 0.660401 0.128819
vt 0.666456 0.128682
vt 0.672037 0.128518
vt 0.567715 0.126482
vt 0.572349 0.127051
vt 0.576992 0.127434
vt 0.581993 0.127695
vt 0.587521 0.127904
vt 0.593525 0.128114
vt 0.599793 0.128357
vt 0.606035 0.128668
vt 0.611978 0.129006
vt 0.617424 0.129331
vt 0.622335 0.129587
vt 0.626889 0.129721
vt 0.627205 0.090820
vt 0.631917 0.090864
vt 0.622495 0.090729
vt 0.617645 0.090587
vt 0.612577 0.090413
vt 0.607301 0.090230
vt 0.601902 0.090055
vt 0.596510 0.089886
vt 0.591249 0.089731
vt 0.586206 0.089573
vt 0.581392 0.089390
vt 0.576733 0.089156
vt 0.672984 0.090581
vt 0.668180 0.090660
vt 0.663147 0.090701
vt 0.657896 0.090727
vt 0.652511 0.090757
vt 0.647115 0.090789
vt 0.641839 0.090828
vt 0.636769 0.090859
vt 0.410368 0.047838
vt 0.448358 0.047838
vt 0.448358 0.068939
vt 0.410368 0.068939
vt 0.448358 0.000001
vt 0.410368 0.000001
vt 0.448358 0.020429
vt 0.410368 0.020429
vt 0.551843 0.047838
vt 0.551843 0.020429
vt 0.551843 0.000001
vt 0.551843 0.068939
vt 0.508617 0.068939
vt 0.508617 0.047838
vt 0.508617 0.000001
vt 0.508617 0.020429
vt 0.477978 0.047838
vt 0.477978 0.068939
vt 0.477978 0.000001
vt 0.477978 0.020429
vt 0.002565 0.000006
vt 0.038593 0.000114
vt 0.037560 0.280062
vt 0.001539 0.280058
vt 0.056514 0.998574
vt 0.058859 0.998110
vt 0.064672 0.998881
vt 0.066853 1.000000
vt 0.000000 0.280065
vt 0.111153 0.280423
vt 0.112214 0.000383
vt 0.148250 0.000520
vt 0.074638 0.000239
vt 0.076179 0.000245
vt 0.075123 0.280075
vt 0.073584 0.280067
vt 0.107303 0.962444
vt 0.024459 0.957494
vt 0.086851 0.956472
vt 0.065815 0.950590
vt 0.067278 0.950803
vt 0.062490 0.997770
vt 0.061042 0.997154
vt 0.045468 0.953815
vt 0.005900 0.679363
vt 0.137710 0.680466
vt 0.038447 0.679111
vt 0.072585 0.678929
vt 0.071043 0.678919
vt 0.105179 0.679684
vt 0.010970 0.841320
vt 0.128569 0.843638
vt 0.039874 0.840048
vt 0.070634 0.839205
vt 0.069077 0.839204
vt 0.099784 0.841311
vt 0.225310 0.094925
vt 0.232433 0.107636
vt 0.233851 0.017980
vt 0.226332 0.030459
vt 0.243694 0.117817
vt 0.245426 0.008159
vt 0.257991 0.124469
vt 0.259924 0.001962
vt 0.273922 0.126935
vt 0.275924 0.000000
vt 0.289922 0.124973
vt 0.291855 0.002466
vt 0.304421 0.118776
vt 0.306152 0.009118
vt 0.315996 0.108955
vt 0.317414 0.019299
vt 0.323515 0.096476
vt 0.324537 0.032010
vt 0.228493 0.076545
vt 0.224936 0.082031
vt 0.225553 0.043335
vt 0.228935 0.048930
vt 0.223936 0.086528
vt 0.221192 0.041258
vt 0.328655 0.085677
vt 0.324294 0.083600
vt 0.324911 0.044904
vt 0.325911 0.040407
vt 0.320912 0.078005
vt 0.321354 0.050390
vt 0.274550 0.087215
vt 0.275296 0.039720
vt 0.274708 0.077316
vt 0.275139 0.049619
vt 0.274620 0.082834
vt 0.275227 0.044101
vt 0.059373 0.999410
vt 0.023039 0.958049
vt 0.009436 0.841449
vt 0.004361 0.679395
vt 0.147165 0.280774
vt 0.001026 0.000001
vt 0.055805 0.999926
vt 0.477978 0.093001
vt 0.508617 0.093001
vt 0.448358 0.093001
vt 0.566938 0.068939
vt 0.551843 0.093001
vt 0.566938 0.047838
vt 0.400312 0.055550
vt 0.400312 0.093001
vt 0.572928 0.036440
vt 0.572087 0.088859
vt 0.677090 0.128273
vt 0.569993 0.001212
vt 0.329338 0.042969
vt 0.337839 0.043106
vt 0.337157 0.085811
vt 0.325152 0.088127
vt 0.212690 0.041124
vt 0.224695 0.038808
vt 0.220509 0.083966
vt 0.212008 0.083829
vt 0.325299 0.045180
vt 0.324688 0.083339
vt 0.225159 0.043596
vt 0.224548 0.081755
vt 0.352397 0.043340
vt 0.367565 0.043583
vt 0.383320 0.043835
vt 0.399426 0.044092
vt 0.167208 0.040401
vt 0.182963 0.040652
vt 0.198132 0.040893
vt 0.351715 0.086042
vt 0.366883 0.086283
vt 0.382638 0.086534
vt 0.150420 0.082843
vt 0.166527 0.083100
vt 0.182282 0.083352
vt 0.197450 0.083595
vt 0.398745 0.086791
vt 0.151102 0.040144
vn 0.922553 0.082454 -0.376958
vn 0.736709 0.056752 -0.673824
vn 0.751022 0.023008 -0.659877
vn 0.930174 0.033349 -0.365600
vn 0.499259 0.028956 -0.865969
vn 0.515062 0.011778 -0.857072
vn 0.249501 0.008981 -0.968333
vn 0.259596 0.003680 -0.965710
vn -0.000000 0.001844 -0.999998
vn -0.000000 0.000780 -1.000000
vn -0.249501 0.008981 -0.968333
vn -0.259597 0.003680 -0.965710
vn -0.499259 0.028956 -0.865969
vn -0.515062 0.011778 -0.857072
vn -0.736709 0.056752 -0.673824
vn -0.751022 0.023008 -0.659877
vn -0.922553 0.082454 -0.376959
vn -0.930174 0.033349 -0.365600
vn -0.995647 0.093209 -0.000000
vn -0.999291 0.037665 -0.000000
vn -0.922552 0.082454 0.376960
vn -0.930174 0.033349 0.365601
vn -0.736709 0.056752 0.673824
vn -0.751021 0.023008 0.659877
vn -0.499259 0.028956 0.865969
vn -0.515062 0.011778 0.857072
vn -0.249501 0.008981 0.968333
vn -0.259596 0.003680 0.965710
vn 0.000000 0.001844 0.999998
vn 0.000000 0.000780 1.000000
vn 0.249502 0.008981 0.968333
vn 0.259597 0.003680 0.965710
vn 0.499259 0.028956 0.865969
vn 0.515062 0.011778 0.857072
vn 0.736709 0.056752 0.673824
vn 0.751022 0.023008 0.659876
vn 0.922553 0.082454 0.376959
vn 0.930174 0.033349 0.365601
vn 0.995647 0.093209 0.000001
vn 0.999290 0.037665 0.000001
vn 0.999330 -0.036598 0.000001
vn 0.930021 -0.032404 -0.366074
vn 0.922847 -0.076975 -0.377397
vn 0.996204 -0.087043 0.000001
vn 0.930021 -0.032404 0.366075
vn 0.922847 -0.076976 0.377397
vn 0.750551 -0.022357 0.660434
vn 0.736606 -0.052948 0.674247
vn 0.514503 -0.011446 0.857412
vn 0.499026 -0.027002 0.866166
vn 0.259236 -0.003575 0.965808
vn 0.249350 -0.008375 0.968377
vn 0.000000 -0.000757 1.000000
vn 0.000000 -0.001721 0.999999
vn -0.259236 -0.003575 0.965808
vn -0.249350 -0.008375 0.968377
vn -0.514503 -0.011446 0.857412
vn -0.499026 -0.027002 0.866166
vn -0.750551 -0.022357 0.660434
vn -0.736605 -0.052948 0.674247
vn -0.930021 -0.032404 0.366076
vn -0.922846 -0.076975 0.377398
vn -0.999330 -0.036598 0.000000
vn -0.996204 -0.087043 0.000000
vn -0.930021 -0.032404 -0.366075
vn -0.922847 -0.076975 -0.377397
vn -0.750551 -0.022357 -0.660434
vn -0.736605 -0.052948 -0.674247
vn -0.514503 -0.011446 -0.857412
vn -0.499025 -0.027002 -0.866167
vn -0.259236 -0.003575 -0.965807
vn -0.249351 -0.008375 -0.968377
vn -0.000000 -0.000757 -1.000000
vn -0.000000 -0.001721 -0.999999
vn 0.259235 -0.003575 -0.965808
vn 0.249350 -0.008375 -0.968377
vn 0.514503 -0.011446 -0.857412
vn 0.499026 -0.027002 -0.866167
vn 0.750551 -0.022357 -0.660434
vn 0.736605 -0.052948 -0.674247
vn -0.245691 0.000000 0.969348
vn -0.162731 0.000000 0.986671
vn -0.169823 0.000000 0.985475
vn -0.245691 0.000000 0.969348
vn 0.206114 0.978528 0.000000
vn 0.123357 0.992362 0.000000
vn 0.123357 0.992362 0.000000
vn 0.206114 0.978528 0.000000
vn -0.245691 0.000000 -0.969348
vn -0.169823 0.000000 -0.985475
vn -0.162731 0.000000 -0.986671
vn -0.245691 0.000000 -0.969348
vn 0.042301 -0.999105 0.000000
vn 0.017352 -0.999849 0.000000
vn 0.017352 -0.999849 0.000000
vn 0.042301 -0.999105 0.000000
vn 1.000000 0.000000 0.000000
vn 1.000000 0.000000 0.000000
vn 1.000000 0.000000 0.000000
vn 1.000000 0.000000 0.000000
vn -1.000000 0.000000 0.000000
vn -1.000000 0.000000 0.000000
vn -1.000000 0.000000 0.000000
vn -1.000000 0.000000 0.000000
vn 0.161831 0.000000 0.986818
vn 0.155601 0.000000 0.987820
vn 0.230209 0.000000 0.973141
vn 0.230209 0.000000 0.973141
vn -0.119942 0.992781 0.000000
vn -0.119942 0.992781 0.000000
vn -0.192902 0.981218 0.000000
vn -0.192902 0.981218 0.000000
vn 0.155601 0.000000 -0.987820
vn 0.161831 0.000000 -0.986818
vn 0.230209 0.000000 -0.973141
vn 0.230209 0.000000 -0.973141
vn -0.016937 -0.999857 0.000000
vn -0.016937 -0.999857 0.000000
vn -0.039486 -0.999220 0.000000
vn -0.039486 -0.999220 0.000000
vn -0.000000 0.000000 1.000000
vn 0.000000 0.000000 1.000000
vn 0.000000 1.000000 0.000000
vn 0.000000 1.000000 0.000000
vn 0.000000 0.000000 -1.000000
vn 0.000000 0.000000 -1.000000
vn -0.000000 -1.000000 0.000000
vn -0.000000 -1.000000 0.000000
vn -0.100940 0.000000 0.994893
vn 0.000000 0.000000 1.000000
vn 0.000000 0.000269 1.000000
vn -0.103887 0.000267 0.994589
vn 0.000000 1.000000 0.000000
vn 0.000000 1.000000 0.000000
vn 0.000000 1.000000 0.000000
vn 0.000000 1.000000 0.000000
vn -0.103887 0.000267 -0.994589
vn 0.000000 0.000269 -1.000000
vn 0.000000 0.000000 -1.000000
vn -0.100940 0.000000 -0.994893
vn 1.000000 0.000000 0.000000
vn 1.000000 0.000000 0.000000
vn 0.999987 0.005160 0.000000
vn 0.999987 0.005160 0.000000
vn -1.000000 0.000000 0.000000
vn -1.000000 0.000000 0.000000
vn -0.999987 0.005160 0.000000
vn -0.999987 0.005160 0.000000
vn -0.987058 0.160365 0.000000
vn -0.987058 0.160365 0.000000
vn -0.926922 0.375253 0.000000
vn -0.926922 0.375253 0.000000
vn -0.152574 0.069653 -0.985834
vn -0.000000 0.070478 -0.997513
vn -0.000000 0.015172 -0.999885
vn -0.145569 0.012618 -0.989268
vn 0.987058 0.160365 0.000000
vn 0.987058 0.160365 0.000000
vn 0.926922 0.375253 0.000000
vn 0.926922 0.375253 0.000000
vn -0.145569 0.012618 0.989268
vn -0.000000 0.015172 0.999885
vn -0.000000 0.070478 0.997513
vn -0.152574 0.069653 0.985835
vn -0.999918 0.012784 0.000000
vn -0.999918 0.012784 0.000000
vn -0.000000 0.000703 1.000000
vn -0.109296 0.000696 0.994009
vn 0.999918 0.012784 0.000000
vn 0.999918 0.012784 0.000000
vn -0.109296 0.000696 -0.994009
vn -0.000000 0.000703 -1.000000
vn -0.999179 0.040509 0.000000
vn -0.999179 0.040509 0.000000
vn -0.000000 0.002617 0.999997
vn -0.127715 0.002552 0.991808
vn 0.999179 0.040509 0.000000
vn 0.999179 0.040509 0.000000
vn -0.127715 0.002552 -0.991808
vn -0.000000 0.002617 -0.999997
vn 0.100940 0.000000 0.994893
vn 0.103887 0.000267 0.994589
vn 0.109296 0.000696 0.994009
vn 0.127715 0.002552 0.991808
vn 0.145569 0.012618 0.989268
vn 0.152574 0.069653 0.985834
vn 0.000000 1.000000 0.000000
vn 0.000000 1.000000 0.000000
vn 0.152574 0.069653 -0.985834
vn 0.145569 0.012618 -0.989268
vn 0.127715 0.002552 -0.991808
vn 0.109296 0.000696 -0.994009
vn 0.103887 0.000267 -0.994589
vn 0.100940 0.000000 -0.994893
vn -0.921125 -0.389266 0.000000
vn -0.768919 -0.639347 0.000000
vn -0.768919 -0.639347 0.000000
vn -0.921125 -0.389266 0.000000
vn -0.535962 -0.844242 0.000000
vn -0.535962 -0.844242 0.000000
vn -0.273117 -0.961981 0.000000
vn -0.273117 -0.961981 0.000000
vn 0.000000 -1.000000 0.000000
vn 0.000000 -1.000000 0.000000
vn 0.273116 -0.961981 0.000000
vn 0.273116 -0.961981 0.000000
vn 0.535961 -0.844243 0.000000
vn 0.535961 -0.844243 0.000000
vn 0.768919 -0.639346 0.000000
vn 0.768919 -0.639346 0.000000
vn 0.921125 -0.389266 0.000000
vn 0.921125 -0.389266 0.000000
vn -0.049047 0.997091 -0.058339
vn -0.435426 0.900224 0.000000
vn -0.435426 0.900224 0.000000
vn -0.049047 0.997091 0.058339
vn -0.972921 0.231139 0.000000
vn -0.996351 -0.085349 0.000000
vn -0.996351 -0.085349 0.000000
vn -0.972921 0.231139 0.000000
vn 0.996351 -0.085347 0.000000
vn 0.972919 0.231146 0.000000
vn 0.972919 0.231146 0.000000
vn 0.996351 -0.085347 0.000000
vn 0.435428 0.900224 0.000000
vn 0.049047 0.997091 -0.058339
vn 0.049047 0.997091 0.058339
vn 0.435428 0.900224 0.000000
vn -0.000000 0.000000 -1.000000
vn -0.001206 0.264029 -0.964514
vn 0.000000 0.216698 -0.976239
vn 0.000000 0.000000 -1.000000
vn 0.000000 0.000000 -1.000000
vn 0.000000 0.000000 -1.000000
vn 0.000000 0.000000 -1.000000
vn 0.000000 0.000000 -1.000000
vn 0.000000 0.000000 -1.000000
vn 0.000000 0.000000 -1.000000
vn 0.000000 0.000000 -1.000000
vn 0.001206 0.264029 -0.964514
vn -0.001206 0.264029 0.964514
vn -0.000000 0.000000 1.000000
vn 0.000000 0.216698 0.976239
vn 0.000000 0.000000 1.000000
vn 0.000000 0.000000 1.000000
vn 0.000000 0.000000 1.000000
vn 0.000000 0.000000 1.000000
vn 0.000000 0.000000 1.000000
vn 0.000000 0.000000 1.000000
vn 0.000000 0.000000 1.000000
vn 0.000000 0.000000 1.000000
vn 0.001206 0.264029 0.964514
vn -0.000000 0.998706 -0.050857
vn 0.000000 0.998706 0.050857
vn -0.002295 0.502580 -0.864528
vn 0.000000 0.502581 -0.864530
vn -0.001520 0.955870 -0.293786
vn -0.000000 0.955871 -0.293786
vn 0.002295 0.502580 0.864528
vn -0.000000 0.502581 0.864530
vn 0.001520 0.955870 0.293786
vn 0.000000 0.955871 0.293786
vn 0.001520 0.955870 -0.293786
vn 0.002295 0.502580 -0.864528
vn -0.001520 0.955870 0.293786
vn -0.002295 0.502580 0.864528
s 1
f 1/1/1 2/2/2 80/3/3 61/4/4
f 2/2/2 3/5/5 79/6/6 80/3/3
f 3/5/5 4/7/7 78/8/8 79/6/6
f 4/7/7 5/9/9 77/10/10 78/8/8
f 5/9/9 6/11/11 76/12/12 77/10/10
f 6/11/11 7/13/13 75/14/14 76/12/12
f 7/13/13 8/15/15 74/16/16 75/14/14
f 8/15/15 9/17/17 73/18/18 74/16/16
f 9/191/17 10/19/19 72/20/20 73/188/18
f 10/19/19 11/21/21 71/22/22 72/20/20
f 11/21/21 12/23/23 70/24/24 71/22/22
f 12/23/23 13/25/25 69/26/26 70/24/24
f 13/25/25 14/27/27 68/28/28 69/26/26
f 14/27/27 15/29/29 67/30/30 68/28/28
f 15/29/29 16/31/31 66/32/32 67/30/30
f 16/31/31 17/33/33 65/34/34 66/32/32
f 17/33/33 18/35/35 64/36/36 65/34/34
f 18/35/35 19/37/37 63/38/38 64/36/36
f 19/37/37 20/39/39 62/40/40 63/38/38
f 20/39/39 1/1/1 61/4/4 62/40/40
f 42/61/41 41/62/42 21/41/43 40/60/44
f 43/63/45 42/61/41 40/60/44 39/59/46
f 44/64/47 43/63/45 39/59/46 38/58/48
f 45/65/49 44/64/47 38/58/48 37/57/50
f 46/66/51 45/65/49 37/57/50 36/56/52
f 47/67/53 46/66/51 36/56/52 35/55/54
f 48/68/55 47/67/53 35/55/54 34/54/56
f 49/69/57 48/68/55 34/54/56 33/53/58
f 50/70/59 49/69/57 33/53/58 32/52/60
f 51/71/61 50/70/59 32/52/60 31/51/62
f 52/72/63 51/71/61 31/51/62 30/50/64
f 53/189/65 52/72/63 30/50/64 29/49/66
f 54/74/67 53/73/65 29/190/66 28/48/68
f 55/75/69 54/74/67 28/48/68 27/47/70
f 56/76/71 55/75/69 27/47/70 26/46/72
f 57/77/73 56/76/71 26/46/72 25/45/74
f 58/78/75 57/77/73 25/45/74 24/44/76
f 59/79/77 58/78/75 24/44/76 23/43/78
f 60/80/79 59/79/77 23/43/78 22/42/80
f 41/62/42 60/80/79 22/42/80 21/41/43
f 62/40/40 61/4/4 41/62/42 42/61/41
f 63/38/38 62/40/40 42/61/41 43/63/45
f 64/36/36 63/38/38 43/63/45 44/64/47
f 65/34/34 64/36/36 44/64/47 45/65/49
f 66/32/32 65/34/34 45/65/49 46/66/51
f 67/30/30 66/32/32 46/66/51 47/67/53
f 68/28/28 67/30/30 47/67/53 48/68/55
f 69/26/26 68/28/28 48/68/55 49/69/57
f 70/24/24 69/26/26 49/69/57 50/70/59
f 71/22/22 70/24/24 50/70/59 51/71/61
f 72/20/20 71/22/22 51/71/61 52/72/63
f 73/188/18 72/20/20 52/72/63 53/189/65
f 74/16/16 73/18/18 53/73/65 54/74/67
f 75/14/14 74/16/16 54/74/67 55/75/69
f 76/12/12 75/14/14 55/75/69 56/76/71
f 77/10/10 76/12/12 56/76/71 57/77/73
f 78/8/8 77/10/10 57/77/73 58/78/75
f 79/6/6 78/8/8 58/78/75 59/79/77
f 80/3/3 79/6/6 59/79/77 60/80/79
f 61/4/4 80/3/3 60/80/79 41/62/42
s 2
f 81/81/81 93/82/82 94/83/83 83/84/84
s 3
f 83/84/85 94/83/86 95/182/87 85/187/88
s 4
f 85/86/89 95/85/90 96/87/91 87/88/92
s 5
f 87/88/93 96/87/94 93/82/95 81/81/96
s off
f 82/89/97 88/185/98 86/183/99 84/92/100
f 87/186/101 81/81/102 83/84/103 85/187/104
s 2
f 90/93/105 89/94/106 82/89/107 84/92/108
s 3
f 91/181/109 90/93/110 84/92/111 86/184/112
s 4
f 92/96/113 91/95/114 86/91/115 88/90/116
s 5
f 89/94/117 92/96/118 88/90/119 82/89/120
s 2
f 94/83/83 93/82/82 97/97/121 98/98/122
s 3
f 95/182/87 94/83/86 98/98/123 99/180/124
s 4
f 96/87/91 95/85/90 99/99/125 100/100/126
s 5
f 93/82/95 96/87/94 100/100/127 97/97/128
s 2
f 98/98/122 97/97/121 89/94/106 90/93/105
s 3
f 99/180/124 98/98/123 90/93/110 91/181/109
s 4
f 100/100/126 99/99/125 91/95/114 92/96/113
s 5
f 97/97/128 100/100/127 92/96/118 89/94/117
s 10
f 101/101/129 125/102/130 126/103/131 109/104/132
s 11
f 103/105/133 130/106/134 131/173/135 105/179/136
s 12
f 110/177/137 135/110/138 136/111/139 107/112/140
s 13
f 102/113/141 108/114/142 111/115/143 112/116/144
s 14
f 107/178/145 101/101/146 109/104/147 110/109/148
f 121/174/149 122/118/150 103/105/151 105/179/152
s 12
f 105/108/153 131/107/154 132/119/155 121/117/156
s 13
f 123/120/157 124/121/158 106/122/159 104/123/160
s 10
f 122/118/161 129/124/162 130/106/163 103/105/164
s 14
f 110/109/148 109/104/147 114/125/165 113/176/166
s 10
f 109/104/132 126/103/131 127/127/167 114/125/168
s 13
f 112/116/144 111/115/143 116/128/169 115/129/170
s 12
f 113/126/171 134/130/172 135/110/138 110/177/137
s 14
f 113/176/166 114/125/165 118/131/173 117/175/174
s 10
f 114/125/168 127/127/167 128/133/175 118/131/176
s 13
f 115/129/170 116/128/169 120/134/177 119/135/178
s 12
f 117/132/179 133/136/180 134/130/172 113/126/171
s 14
f 117/175/174 118/131/173 122/118/150 121/174/149
s 10
f 118/131/176 128/133/175 129/124/162 122/118/161
s 13
f 119/135/178 120/134/177 124/121/158 123/120/157
s 12
f 121/117/156 132/119/155 133/136/180 117/132/179
s 10
f 126/103/131 125/102/130 102/113/181 112/116/182
f 127/127/167 126/103/131 112/116/182 115/129/183
f 128/133/175 127/127/167 115/129/183 119/135/184
f 129/124/162 128/133/175 119/135/184 123/120/185
f 130/106/163 129/124/162 123/120/185 104/123/186
s 11
f 131/173/135 130/106/134 104/123/187 106/122/188
s 12
f 132/119/155 131/107/154 106/122/189 124/121/190
f 133/136/180 132/119/155 124/121/190 120/134/191
f 134/130/172 133/136/180 120/134/191 116/128/192
f 135/110/138 134/130/172 116/128/192 111/115/193
f 136/111/139 135/110/138 111/115/193 108/114/194
s 19
f 137/199/195 138/217/196 147/210/197 146/196/198
f 138/217/196 139/216/199 148/209/200 147/210/197
f 139/216/199 140/215/201 149/208/202 148/209/200
f 140/215/201 141/214/203 150/219/204 149/208/202
f 141/218/203 142/213/205 151/206/206 150/207/204
f 142/213/205 143/212/207 152/205/208 151/206/206
f 143/212/207 144/211/209 153/204/210 152/205/208
f 144/211/209 145/194/211 154/193/212 153/204/210
s 20
f 157/155/213 156/203/214 159/202/215 158/158/216
s 19
f 156/203/217 155/198/218 160/160/219 159/202/220
f 163/161/221 162/201/222 165/200/223 164/192/224
s 20
f 162/201/225 161/165/226 166/166/227 165/200/228
s 19
f 155/198/218 137/199/195 146/196/198 160/160/219
f 145/194/211 163/161/221 164/192/224 154/193/212
s 22
f 137/137/229 155/159/230 167/167/231
f 138/138/232 137/137/229 167/167/231
f 139/141/233 138/138/232 167/167/231
f 140/143/234 139/141/233 167/167/231
f 141/145/235 140/143/234 167/167/231
f 142/147/236 141/145/235 167/167/231
f 143/149/237 142/147/236 167/167/231
f 144/151/238 143/149/237 167/167/231
f 145/153/239 144/151/238 167/167/231
f 163/195/240 145/153/239 167/167/231
s 23
f 160/197/241 146/140/242 170/168/243
f 146/140/242 147/139/244 170/168/243
f 147/139/244 148/142/245 170/168/243
f 148/142/245 149/144/246 170/168/243
f 149/144/246 150/146/247 170/168/243
f 150/146/247 151/148/248 170/168/243
f 151/148/248 152/150/249 170/168/243
f 152/150/249 153/152/250 170/168/243
f 153/152/250 154/154/251 170/168/243
f 154/154/251 164/164/252 170/168/243
s 20
f 161/165/226 169/169/253 172/170/254 166/166/227
f 169/169/253 157/155/213 158/158/216 172/170/254
s 22
f 155/159/230 156/156/255 168/171/256 167/167/231
s 20
f 156/156/257 157/155/213 169/169/253 168/171/258
s 23
f 164/164/252 165/163/259 171/172/260 170/168/243
s 20
f 165/163/261 166/166/227 172/170/254 171/172/262
f 161/165/226 162/162/263 168/171/258 169/169/253
s 22
f 162/162/264 163/195/240 167/167/231 168/171/256
s 20
f 158/158/216 159/157/265 171/172/262 172/170/254
s 23
f 159/157/266 160/197/241 170/168/243 171/172/260
