<?xml version="1.0" encoding="UTF-8"?>
<svg id="Layer_2" data-name="Layer 2" xmlns="http://www.w3.org/2000/svg" viewBox="0 0 162.95 166.78">
  <defs>
    <style>
      .cls-1 {
        fill: #000;
        stroke-width: 0px;
      }
    </style>
  </defs>
  <g id="Land1">
    <path class="cls-1" d="M48.08,123.14c.23,1.1.48,2.2.66,3.31.03.15-.27.35-.4.54-.31.43-.61.87-.92,1.31.07.08.13.15.2.23-.37.04-.74.09-1.18.14.34.38.62.7.9,1.02-1.16-.16-2.4-.14-2.49-1.49-.76-.22-1.41-.39-2.06-.61-.8-.27-1.48-1.01-2.48-.32-.15.11-1.14-.55-1.27-.99-.13-.42.22-1.28.61-1.5.93-.52.58-1.48.96-2.16.19-.34.13-.91,0-1.32-.16-.5-.52-.93-.95-1.65.41-.14,1.02-.29,1.59-.55.84-.38,1.69-.77,2.46-1.28.6-.4.96-.32,1.43.17.96,1.02,1.96,2.01,2.98,2.96.93.87-.05,1.5-.04,2.2Z"/>
    <path class="cls-1" d="M48.54,8.12c-.11.15-.26.35-.49.67-.12-.27-.26-.43-.22-.53.41-1.11.74-2.26,1.29-3.29.51-.95,2.94-1.44,3.97-.99.42.19.95.18,1.32.42,1.63,1.06,2.32,2.43,1.85,4.49-.24,1.05-.17,1.9-1.51,2.07-1.34.16-2.19-.34-2.71-1.55-.08-.18-.45-.44-.54-.39-1.32.69-1.95-.65-2.97-.91Z"/>
    <path class="cls-1" d="M118.27,42.78c-.34.13-.63.23-.92.34.06.13.07.23.13.26,1.37.8,1.56,2.57.43,3.76-.63.66-1.31,1.29-1.77,2.06-.42.71-.97.8-1.6.65-1.06-.26-2.09-.62-3.22-.96.17-.48.26-.77.4-1.16-.33.02-.61.03-.93.04.03-.16.02-.29.08-.37,1.21-1.39,1.41-2.65.64-4.25-.53-1.11-.27-1.71.92-2.13.9-.32,1.61-.93,2.75-.82,1.9.18,2.52.49,3.09,2.57Z"/>
    <path class="cls-1" d="M135.45,134.58c-1.23-1.37-1.21-1.36-.18-2.73.74-.99,1.61-.84,2.51-.33,1.1.63,2.12,1.46,3.28,1.92.88.35,1.96.42,2.91.32,1.23-.13,1.97.31,2.49,1.41.28-.16.5-.28.75-.42.08.09.18.17.21.27.32.84.78,1.14,1.57.49.2-.16.6-.36.73-.27.84.56,2.16.29,2.6,1.53.12.33.37.61.53.94.25.51,1.19.77.6,1.58-.62.85-1.42,1.51-2.52,1.27-1.35-.31-2.17.08-2.91,1.25-.28.45-1.37.78-1.9.6-.68-.23-1.45-.94-1.66-1.61-.3-.96-.31-1.8-1.69-1.49-.41.09-.97-.45-1.35-.34-.8.24-1.89.34-1.75,1.71.02.18-.74.64-1.12.63-1.46-.04-2.99.57-4.36-.38-.29-.2-.73-.49-.73-.74-.03-1.01-.1-2.01.85-2.84.48-.42.51-1.36.76-2.05.08-.22.22-.42.37-.68Z"/>
    <path class="cls-1" d="M76.68,24.74c-.13-.02-.43-.07-.74-.13-.16.76-.3,1.45-.52,2.5.93-.22,1.78-.25,2.42-.63.83-.48,1.54-1.19,2.22-1.89.71-.74,1.44-1.13,2.51-.62v-1.04c1.44-.17,2.75-.46,3.61-1.72.1-.15.31-.26.48-.33,1.55-.64,3.82.27,4.63,1.78.58,1.09,1.2,2.17,1.96,3.14.44.56,1.06.98,1.88.14.6-.62,1.54-.99,2.4-1.25.27-.08.76.58.98,1.12.96.35,1.91.71,2.91,1.08-.44.49-.21.9.45,1.52.4.38.43,1.44.25,2.1-.35,1.31-.93,2.56-1.48,3.81-.12.28-.62.41-.74.69-.29.72-.46,1.48-.73,2.43-1.06.29-1.36,1.06-1.2,2.46.14,1.28.75,2.75-.36,4.01-.11.13.2.63.31.96.15-.08.3-.16.45-.23.1.81,1.43,1.93,2.26,1.9,2.72-.09,4.84,2.74,4.05,5.36-.12.39-.02.85-.02,1.33-.24.07-.49.14-.58.17v2.05s.26.1.4.15c.1.48.15.93.29,1.35.25.73.54,1.46.85,2.17.12.28.34.51.52.76.22.31.44.63.68.93.21.26.43.68.69.71,1.41.2,2.45.87,3.21,2.36-.23.09-.53.21-.96.39,1.62,1.25.78,2.81,1.13,4.14.11.43.29.84.43,1.26.36-.19.72-.38,1.11-.58.31.92.97,1.01,1.86.62.29-.13.67-.06,1.01-.02.27.03.55.23.8.19,1.79-.27,2.18-.03,2.66,1.76.06.22.1.46.14.66-.43.14-.82.27-1.32.43.94.64,1.65,1.2,2.42,1.64.87.49.7,1.28.55,1.94-.28,1.24,0,2.04.93,2.72,1.43,1.04,2.89,2.07,4.15,3.3.63.62,1.03,1.63,1.2,2.53.19.97.48,1.67,1.29,2.32.56.45.85,1.11,1.63,1.54,1.28.71,2.29.04,3.41-.05,1.3-.1,2.52-.52,3.91-.26,1.2.23,2.01.37,1.74,1.8,1.23-.03,2.05.74,2.47,1.83.21.55.84,1,1.38,1.35.6.38.93.65,1.03,1.51.09.81.88,1.6,1.5,2.27,1.14,1.23,1.5,2.7,1.57,4.28.05,1.25,1.38,2.64,2.73,2.38,1.13-.22,1.7.4,2.46.85.32.19.71.27,1.09.33,1.15.85,2.04,2.09,3.79,2.06.49-.01,1.03.51,1.47.88.81.68,1.6,1.4,2.32,2.16.34.36.74.87.75,1.32.05,1.48.26,3.08-.21,4.42-.55,1.56.8,1.98,1.13,2.97.14.44.31.87.41,1.32.06.26-.08.59.02.82.26.62.45,1.17-.2,1.69-.14.11-.18.48-.12.69.44,1.64-.79,2.76-1.32,4.07-.15.37-1.19.6-1.77.52-1.62-.21-3.23-.55-4.8-.99-.73-.2-1.5-.64-1.98-1.21-.64-.75-1.38-.99-2.27-1.06-.19-.02-.44-.04-.58.05-.73.47-1.4,1.04-2.15,1.46-.82.46-1.88,1.3-2.53,1.08-1.23-.42-2.47-1.3-3.3-2.31-1.07-1.3-2.27-2.05-3.82-2.64-1.41-.54-2.66-.25-3.98-.04-.42.07-.91.17-1.22.43-.56.48-1.04.72-1.66.13-.1-.1-.3-.15-.44-.14-1.46.07-2.93.14-4.39.27-.25.02-.57.24-.7.46-.73,1.26-1.54,1.31-2.28.09-.11.04-.22.08-.33.12.25.65.51,1.3.75,1.92-.41.49-.86,1.04-1.32,1.58.1.09.2.18.29.27.22-.15.44-.3.66-.44l.28.16c-.27.64-.53,1.28-.8,1.93-.09-.04-.18-.08-.27-.12.21,1.2.42,2.39.67,3.83.5.53,1.2,1.28,2.15,2.28-.86,2.63,1.27,5.12,1.51,8.07,1.05-.27,1.97-.27,2.24,1.03.02.11.26.16.36.28.4.48,1.12.98,1.11,1.47-.02,1.35.77,1.87,1.76,2.41.72.39,1.36.93,1.99,1.45.89.74.55,1.76.07,2.37-.82,1.06-1.18,2.12-1.13,3.43.01.37-.37.95-.71,1.09-.74.31-.84.74-.41,1.27.53.65.26,1.12-.08,1.72-.65,1.12-1.59,1.87-2.63,2.61-.79.56-1.44,1.35-2.08,2.1-.15.18-.02.59-.02,1-.99.09-1.95.12-2.9.27-1.17.18-2.47-.06-3.47.19-1.18.3-2.35.49-3.54.59-1.53.12-3.06.19-4.58.29-.44.03-.88.06-1.32.13-1.51.24-2.38-.85-3.5-1.53-1.68-1.01-3.49-1.85-5.34-2.51-1.56-.56-2.19-1.48-1.66-2.99.27-.75.35-1.57.46-2.37.02-.18-.15-.51-.31-.56-1.35-.45-2.73-.78-4.05-1.29-.75-.29-1.53-.74-2.06-1.32-.66-.72-1.06-1.67-1.62-2.48-.17-.24-.48-.38-.49-.38-.18-.75-.24-1.27-.44-1.74-.58-1.38-.43-2.58.53-3.78.75-.94,1.29-2.04,1.95-3.11-.25-.87-2.82-.85-.96-2.56-.42-.46-.7-1.32-1.46-.13-.14-.43-.16-.89-.39-1.15-.5-.56-1.06-1.38-1.69-1.47-1.23-.17-1.91-.66-2.48-1.74-.19-.36-1.17-.41-1.78-.39-.46.01-.95.6-1.2-.29-.03-.09-.33-.1-.5-.16-.36-.13-.79-.18-1.07-.42-.79-.67-1.46-1.47-2.27-2.1-.56-.43-1.35-.55-1.91-.98-.48-.37-.78-.99-1.16-1.5l-.36.29c.03.24.06.48.06.51-1.74-.85-3.53-1.72-5.32-2.61-1.01-.5-2.01-1-3-1.55-.22-.12-.37-.41-.49-.65-.33-.65-.62-1.32-.95-2.03,0-1.27.16-2.69-.04-4.05-.26-1.76.4-4.49,2.74-4.65-.27-.91-.53-1.77-.78-2.62-.17.15-.34.29-.54.46-.48-.41-1.08-.78-1.47-1.3-.38-.51-.56-1.18-.86-1.87-.75.8-1.25.73-1.68-.27-.16-.37-.72-.56-.91-.69-.84-1.94-.43-4.15-2.18-5.6.12-1.32-1.11-1.78-1.71-2.63-.56-.8-1.37-1.4-2.54-1.2-.01-.27-.03-.53-.04-.84h-.86c-.72-1.39-2.81-1.55-2.76-3.42-.35-.02-.65-.04-1.07-.07.58-1.13.32-1.92-.67-2.29.16-1.05.32-1.99.44-2.93.02-.17-.07-.45-.2-.51-.91-.5-1.85-.94-2.77-1.43-.51-.27-1.05-.52-1.48-.89-.71-.61-.6-1.24-.02-1.97.45-.56,1.29-1.04.76-2.05-.07-.13.38-.54.64-.89-.96-1.1-2.35-2.09-1.13-4-1.48-.86-2.93-1.57-4.21-2.51-.53-.4-.72-1.28-1.01-1.97-.08-.19.17-.51.09-.69-.75-1.68-1.37-3.44-2.36-4.97-.8-1.24-2.08-2.17-3.11-3.27-.61-.65-.78-1.36-.88-2.34-.23-2.25-.39-4.52-.97-6.78-.59-2.28-1.61-4.43-1.96-6.76-.19-1.27-.28-2.55-.43-3.83-.03-.22-.14-.43-.24-.73-.4.27-.71.49-1.08.74-1.25-.83-2.42-2.1-3.78-2.38-1.47-.3-2.29-2.21-4.14-1.15,0-.12,0-.24.01-.37.18-.24.36-.48.54-.71-.71,0-1.4-.15-1.98.03-.93.3-1.47-.31-1.78-.81-.85-1.39-2.36-1.63-3.58-2.37-.2-.12-.52-.17-.59-.34-.58-1.37-1.88-1.99-2.89-2.92-.6-.56-1.01-1.37-1.38-2.13-.47-.94-.78-1.95-1.24-2.89-.1-.21-.67-.45-.83-.35-1.14.67-2.29.73-3.53.37-.21-.06-.52.2-.81.33-1.09-1.16-1.16-2.44-.63-3.95.28-.81.15-1.81.03-2.69-.04-.29-.66-.5-1.02-.75-.45-.31-.96-.56-1.32-.95-.59-.64-1.09-1.38-1.79-2.28-.1-.58-.35-1.5-.42-2.44-.09-1.11-.03-2.24-.04-3.36,0-.04-.02-.1,0-.12.93-.83,1.68-1.77,2.08-2.98.02-.06.72.1,1.2.17.33-.84.24-1.59-.59-2.32-.71-.63-1.39-1.38-1.15-2.67-.38.32-.65.55-1.17.99.36-1.62-.52-2.25-1.64-2.66.03-.31.2-.7.07-.86C-.41,1.39.2.45.84.11c.54-.29,1.57.04,2.26.36.87.4,1.61,1.07,2.15,1.44.44.56.72.91,1.16,1.46.02.55,1.25,1.85,2.34,2.18,2.04.62,4.14.74,6.25.82.59.02,1.15.47,1.75.63,1.5.4,3.02.78,4.54,1.09.82.17,1.51.18,1.13,1.38-.28.9.8,2.44,1.66,2.94.55.32,1.18.82,1.37,1.37.31.9,1,1.01,1.47.67,1.11-.81,2.2-.2,3.3-.22,1.24-.02,2.45.32,3.72-.3.69-.34,1.73,0,2.61.11,1.04.13,2.08.49,3.12.49,1.09,0,1.67.47,2.09,1.38.27.58.44,1.18,1.4,1.15.44-.01,1.15.74.4,1.56.72.06,1.4-.05,1.18,1.08-.08.43.63,1.12,1.12,1.49.15.11.8-.44,1.45-.83-.02,0,.26.1.43.17.46-.7.91-1.39,1.34-2.05,1.47.66,1.65.57,2.11-.87.31-.96,2.35-2.08,3.37-1.85.11.03.28.08.33.02,1.3-1.34,2.15.33,3.18.57.5.12.77,1.07,1.21,1.58.36.42.76.86,1.24,1.1.61.3,1.36.32,1.98.6.77.35,1.52.79,2.19,1.31,1.54,1.17,3.25,1.25,5.08,1.07,1.65-.16,3.32-.18,5.12-.27.47-.84,1.11-1.23,1.95-.11.09.12.5-.02.61.1.22.26.56.7.47.9-.29.67-.74,1.28-1.23,2.07Z"/>
  </g>
</svg>