<?xml version="1.0" encoding="UTF-8"?>
<svg id="Layer_2" data-name="Layer 2" xmlns="http://www.w3.org/2000/svg" viewBox="0 0 150.57 110.94">
  <defs>
    <style>
      .cls-1 {
        fill: #000;
        stroke-width: 0px;
      }
    </style>
  </defs>
  <g id="Land3">
    <path class="cls-1" d="M84.41,91.78c.33-.02.67-.04,1.03-.06.27-.97.87-1.09,1.84-.91,1.05.19,2.16.06,3.24.08.15,0,.3.05.5.08.07,1.45.1,2.88.2,4.3.13,1.77,1.03,3.19,2.14,4.52.22.27.31.78.23,1.12-.1.45-.43.84-.58,1.12.48,1.05.92,2,1.3,2.82-.78.88-.83,2.4-2.66,1.74.35.56.51.81.68,1.09-.09.08-.17.23-.25.23-1.03.02-2.06.02-3.1.03-.67,0-1.33,0-2.01-.09-.61-.04-1.22-.05-1.82-.12-.61-.07-1.22-.2-1.81-.35-.04,0,.04-.45.07-.81-.75.13-1.47.25-2.37.4-.11-.09-.4-.36-.43-.38-.18-1.51-.27-2.73-.5-3.93-.05-.23-.64-.45-1.01-.49-.27-.03-.61.39-.85.33-.64-.16-1.49-.31-1.82-.77-.51-.71.09-2.44.71-2.8.68-.4,1.31-1.04,2.04-1.19,1.02-.21,2.12-.05,3.27-.05v-1.01c.07.09.15.19.22.28.98-.56,1.96-1.12,2.94-1.69-.04-.11-.09-.21-.13-.32.36.08.73.16,1.09.24.07-.11.14-.23.2-.34-.66-.38-1.33-.77-2.04-1.17.17-.36.34-.71.53-1.12-.34-.19-.63-.36-.92-.52.02-.09.03-.19.05-.28Z"/>
    <path class="cls-1" d="M54.57,3.37c-.18.33-.36.65-.55.98.34.09.68.21,1.03.26.93.13,1.86.23,2.84.35.12-.8.22-1.49.34-2.25.46.07.79.13.9.14.7-.69,1.29-1.27,1.91-1.88.56.48.98.85,1.67,1.45-.06-.72-.09-1.09-.14-1.65.52.21.96.38,1.49.59-.12-.35-.22-.65-.35-1.03.19-.06.41-.22.53-.16.8.4,1.5.2,2.25-.17.17-.09.78.22.8.4.17,1.45,1.25,1.4,2.28,1.48.15.01.3.05.54.1-.08.38-.15.71-.24,1.15.32-.11.58-.19.97-.32.03.62.06,1.16.09,1.71.62.14,1.26.28,2.01.44-.23.4-.39.69-.62,1.08.87-.15,1.25.04,1.08,1-.19,1.11,1.45,2.74,2.85,2.89.94.1,1.58.43,1.85,1.38.06.21.21.5.39.56,1.25.44,1.77,1.4,2.17,2.58.22.63.88,1.11,1.28,1.69.3.43.84,1.08.71,1.37-.48,1.04.46,1.49.86,1.61.92.27,1.21.93,1.36,1.62.31,1.39,1.37,1.3,2.37,1.39.59.05,1.17.1,1.76.1.33,0,.75,0,.98-.19,1.03-.86,2.13-.66,3.32-.44.72.14,1.58-.21,1.7.95,0,.06.32.17.42.12,1.07-.49,1.55.28,1.82,1,.26.71.86,1.05,1.29,1.55.14.16.73-.07,1.4-.16.63.98,3.06-.01,3.54,2.16.73.5,2.02-.14,2.71,1.01.08.13.45.19.62.13,1.61-.67,2.76.46,3.95,1.12.76.42,1.37.94,2.34.87,1.02-.07,2.79,1.75,3.09,2.82.17.61.53,1.21.95,1.68.9.99,1.97,1.78,2.22,3.26.18,1.06,2.09,2.16,3.19,2.3,1.41.18,2.79.51,4.18.84.94.22,1.84.59,2.77.8,1.32.29,1.85,1.29,2.51,2.32,1.15,1.78,2.53,3.41,3.8,5.11,1.17,1.56,2.75,2.55,4.48,3.39.39.19.76.74.85,1.19.28,1.35,1.33,1.89,2.33,2.56,1.39.93,1.26,1.2.85,3.26-.31,1.52-1.09,2.67-1.94,3.84-.48.66-.25,1.83-1.43,1.98.06.36,0,.83.21,1.05,1.27,1.32,3,1.75,4.65,2.39,1.12.43,2.09,1.24,3.14,1.88.51.31,1.03.6,1.65.96-.03,1.12.07,2.48-1.22,3.41-.17.12-.09.55-.23.78-.65,1.12-1.32,2.22-2,3.32-.06.09-.24.12-.28.21-.27.65-.54,1.3-.77,1.96-.28.79-1.81,1.67-2.75,1.48-.14,1.12-.28,2.22-.42,3.4-.28.33-.73.75-1.07,1.25-.92,1.38-1.75,2.8-3.46,3.39-.82.29-1.57.85-2.4,1.02-.56.11-1.23-.19-1.81-.42-.46-.18-.86-.51-1.26-.81-.92-.68-1.81-1.4-2.73-2.08-.18-.13-.5-.28-.64-.2-.9.5-1.73.73-2.85.51-1.14-.22-2.38.12-3.51.21-.34.25-.71.75-1.07.75-1.49-.02-2.55.59-3.3,2-.19-.33-.31-.53-.29-.49-.8.22-1.47.4-2.13.6-.14.04-.32.13-.37.25-.36.76-.95.94-1.76.89-.64-.04-1.31.29-1.93.2-.8-.12-1.71-.29-1.64-1.49.02-.34-.15-.7-.19-.85-.75-.31-1.37-.58-2.05-.86.09.61.2,1.38.31,2.15-.07.02-.13.05-.2.07-.29-.71-.58-1.42-1-2.42-.15.72-.24,1.18-.36,1.78-.78-.7-1.46-1.3-2.34-2.09-.88.19-1.2-.35-.92-1.52.18-.74.17-1.52.24-2.33-.58-.13-1.36-.29-2.24-.48-.02.17-.04.48-.11,1.18-.28-.61-.62-1-.53-1.22.45-1.12-.03-1.19-1.01-1.31-1.61-.19-1.74-.67-.76-2.44-.57.1-.98.17-1.5.26-.02-.22-.04-.49-.09-1.1-.82.16-1.61.41-2.4.44-.42.02-.95-.24-1.25-.55-.57-.59-1.03-.99-1.4-.27-1.05-.36-1.97-.69-2.99-1.04.25-.36.49-.69.73-1.02-.04-.07-.08-.14-.12-.21-.33.19-.73.32-.99.58-1.25,1.27-1.6,1.3-3.13.42-.41-.24-.95-.25-1.43-.37-.3-.08-.6-.17-.89-.27-.11-.04-.23-.19-.29-.16-1.14.43-2.55-.09-3.49.96-.27.3-.49.76-.5,1.16-.04,1.14-.59,1.22-1.5.92-1.22-.39-1.76,0-2,1.35.43.35,1.64-.51,1.44.73-.17,1.05-.97,1.53-2,1.18-.08,1.9-1.49,2.95-2.38,4.49.01.02.13.26.26.51-.31.1-.76.13-.82.3-.36,1.02-.78,2.06-.86,3.12-.05.69-.08.89-.8.89-1.77,0-3.33.46-4.86,1.53-.99.69-2.25,1.45-3.8,1-.56-.17-1.39.43-2.06.77-.56.28-.97.32-1.64.12-.9-.28-1.96-.07-3.18-.07.35.39.52.58.58.66-1.49.24-3.05.48-4.89.77-.3,2.03-.62,4.23-.96,6.43-.14.89-.62,1.7-1.55,1.41-1.07-.33-1.85.1-2.73.42-1.59.58-3.19,1.17-4.77,1.77-.25.1-.47.28-.73.43.14.4.27.76.49,1.37-1.21-.21-2.08.55-3.33.11-1.55-.55-3.63-.11-4.86-.97-2.02-1.41-4.19-.25-6.09-1.09-1.22-.54-2.25-.63-3.58-.23-.9.27-2.07-.35-3.12-.6-.21-.05-.42-.33-.59-.3-1.92.36-3.23-.89-4.71-1.71-1.38-.76-2.82-1.4-4.17-2.2-.75-.44-1.39-1.08-2.03-1.68-.84-.8-1.61-1.66-2.44-2.47-.92-.9-.7-2.15.42-2.8.82-.47,1.56-1.07,2.29-1.67.15-.12.18-.49.13-.71-.09-.39-.29-.76-.48-1.23-.63-.34-1.45-.41-1.9-1.5-.37-.89-1.67-1.37-2.52-2.08-.37-.31-.75-.69-.94-1.12-.27-.61-.72-1.65-.48-1.88.51-.5,1.41-.61,2.18-.78.88-.61,1.12-1.81,2.47-2.22.74-.23,1.17-1.48,1.71-2.3.25-.37.4-.8.61-1.2.09-.17.35-.42.32-.47-.66-.95.33-1.7.27-2.55-.07-1.01-.25-2.02-.37-3.03-.04-.35-.18-.78-.04-1.04.57-.99-.12-1.63-.52-2.38-.19-.36-.49-.82-.4-1.14.22-.79.08-1.44-.28-2.15-.11-.23.21-.67.39-1.16-.05-.35-.12-.91-.19-1.41,1-.31,1.91-.47,2.7-.87,1.01-.51,1.96-1.17,2.85-1.87.34-.27.6-.83.61-1.27.05-1.2.62-1.84,1.7-2.34,1.1-.5,2.12-1.23,3.09-1.98.25-.2.39-.98.21-1.22-.52-.7-1.27-1.22-1.85-1.87-.49-.55-1.06-1.12-1.28-1.79-.44-1.37-.75-2.8-.94-4.23-.1-.73.17-1.52.28-2.28.26-1.77-.41-3.1-1.87-4.04-.51-.33-.84-.93-1.22-1.44-.76-1.02-1.77-1.97-2.16-3.12-.29-.84-1.58-1.49-.74-2.77.26-.4-.2-1.25-.27-1.9-.07-.69-.19-1.23-1.08-1.25-.16,0-.32-.56-.37-.67-1.33-.29-2.54-.48-3.7-.83-.72-.21-1.61,0-2.15-.82-.09-.14-.63.01-1.03.03v-6.26c.11-.03.22-.05.34-.08-.62-.54-1.23-1.07-1.93-1.69.33-.67.67-1.37,1.03-2.11.41.1.74.18,1.06.26.34-1.2.76-2.32.98-3.48.32-1.66,1.7-2.51,3.27-1.93.36.13.78.12,1.17.18.65.1,1.39-.01,1.62.89.04.15.44.23.68.3.53.15,1.08.21,1.59.41.61.23,1.16.51,1.37-.44.02-.1.14-.24.23-.24,2.42-.21,3.65-2.37,5.56-3.43,1.35-.75,2.71-.5,4.12-.32-.05-.18-.1-.35-.15-.54,1.24.24,2.45.47,3.35.64.71-.09,1.2-.19,1.68-.21.96-.05,1.93-.06,2.89-.09l.03-.4c.4.3.8.59,1.01.74.72-.29,1.42-.36,1.75-.75.42-.49.52-1.25.78-1.88.43-1.07.77-2.18,1.35-3.17.4-.69,2.23-.69,2.93-.16.64-.55,1.22-.99,2.09-.19.66.6,1.43.13,1.6-.9.97.48,1.91.95,3.13,1.56.33-.21.92-.8,1.6-.93.63-.12,1.36.24,1.92.17.92-.5,1.84-1,2.76-1.5l.24.28c-.05.32-.1.64-.21,1.34.78-.4,1.36-.69,1.92-.98.12-.58-1.51-.66-.32-1.45.5.48,1.01.96,1.51,1.44,0,.03,0,.06.02.09ZM69.74,32.08c.41.27.73.58.82.52.26-.17.48-.46.62-.75.45-.94.04-2.18,1.09-2.94.11-.08-.09-.9-.36-1.16-1.08-1.02-1.45-2.47-.84-3.76-.46-.45-.91-2.6-.49-3.14.64-.83.22-1.36-.33-1.85-1.06-.94-.85-2.01-.47-3.07-.28,0-.73.12-.85-.03-.2-.24-.2-.66-.27-.97-.65.18-1.29.39-1.94.52-.68.14-1.38.24-2.07.3-.28.02-.58-.19-.84-.14-1.17.22-2.33.5-3.33.73-.36-.4-.62-.68-.88-.96-.09.53-.17,1.07-.24,1.47-.98.53-2.06.95-2.94,1.64-.85.67-.3,2.19.92,2.89-.03.63-.06,1.25-.09,1.91q-1.29-.47-1.39.66c.25-.03.5-.07.75-.1.08.11.16.23.23.34-.68.56-1.32,1.16-2.05,1.65-.75.51-1.57.91-2.38,1.37.27.16.53.31.7.4-.4.52-.75.99-1.11,1.46.13,0,.26,0,.39-.01.38,1.1.76,2.21,1.16,3.39-.54.08-.85.12-1.24.18.13.29.16.51.29.63.87.83,1.06,1.59.25,2.69-.71.96-.4,2.39.19,2.84-.16.58-.3,1.11-.45,1.64.79.18,1.28,1.08,2.36.73.93-.31,2.01-.31,3.01-.24.64.05,1.26.49,2.07.83-.12-.52-.18-.8-.31-1.36.65.6,1.09,1.01,1.6,1.47.52-1.08,2.37-1.26,1.63-2.96-.02-.05.13-.19.23-.26.95-.72,1.9-1.44,2.93-2.22.06,1.45,2.02,2.15,3.66,2.04-.18-.14-.27-.27-.4-.31-2.06-.69-2.31-1.65-.84-3.22.23-.25.41-.57.53-.89.25-.63.44-1.28.67-1.96Z"/>
  </g>
</svg>