<?xml version="1.0" encoding="UTF-8"?>
<svg id="Layer_2" data-name="Layer 2" xmlns="http://www.w3.org/2000/svg" viewBox="0 0 171.64 148.3">
  <defs>
    <style>
      .cls-1 {
        fill: #000;
        stroke-width: 0px;
      }
    </style>
  </defs>
  <g id="Land4">
    <path class="cls-1" d="M170.2,110.76c.07-.3.15-.59.27-.87.04-.13.09-.25.13-.37,0-.04,0-.08,0-.12-.64-1.12-1.2-2.31-2.87-2.3.28-.17.59-.31.85-.51.4-.29.97-.32.76-1.21-.15-.61.42-1.42.74-2.1.36-.75.91-1.42,1.16-2.19.12-.37-.27-.91-.45-1.45h.85c-.45-1.08-.34-2.27-1.79-2.7-.55-.16-.94-.87-1.39-1.34-.89-.94-1.96-1.78-1.62-3.33-.88-.07-1.67-.14-2.46-.21-.03-.07-.11-.14-.1-.21.31-2.05.24-2.02-1.84-1.93-.74.03-1.51.47-2.34-.02-.24-.14-.98.63-1.51.95-.65.4-1.3.78-1.97,1.13-.28.15-.59.23-.9.31-.68.17-1.36.31-2.14.49,0,.02.08.33.24.96-.75-.61-1.25-1.02-1.79-1.46q-.22,1.24-2.72.34c-.21.61-.46,1.26-1.37.58-.27.8-.37,1.58-.78,2.15-.33.47-1,.73-1.56.99-1.59.74-2.22.71-3.24-.05-1.76,1.35-1.98,2.02-.88,3.15-.52.41-1.05.81-1.59,1.23.28.46.46.75.68,1.12-1.21.61-1.5,1.6-1.16,2.86-.99.37-1.94.68-2.86,1.07-1.15.49-2.16.09-3.22-.33-1.13-.45-2.31-.79-3.49-1.08-.66-.16-1.67.14-2.01-.23-1.1-1.21-3.17-.62-3.97-2.29-.08-.16-.59-.1-.88-.19-.42-.13-.81-.35-1.22-.48-.8-.24-1.6-.43-2.41-.64-.67-.18-1.38-.29-2.01-.57-1.98-.87-3.92-1.86-5.47-3.41-.28-.29-.46-1.16-.28-1.34.68-.67,0-1.11-.18-1.56-.08-.19-.65-.19-1-.25-1.65-.24-3.31-.47-4.96-.72-.47-.07-.93-.35-1.38-.34-1.1.03-1.71-.66-2.42-1.31-.3-.27-.82-.34-1.26-.4-.45-.07-.92-.01-1.48-.01-.43,1.32-1.4,1.66-2.84,1.54-1.17-.1-2.37.32-3.57.41-.33.03-1-.31-.99-.44.07-1.05-2.22-1.19-1.01-2.6.4-.46,1.16-.8,1.27-1.3.27-1.24,1.57-1.34,2.02-2.09.16-2.41-1.74-2.27-3.11-2.75-.58-.2-1.17-.35-1.72-.51.03-1.5-.49-2.11-1.8-2.67-.8-.34-1.59-.69-1.41-1.99.09-.64-.6-1.51-1.15-2.07-.2-.21-1,.09-1.5.24-.98.3-1.93.66-2.89,1.01-.25.09-.47.31-.72.36-.53.11-1.3.4-1.55.16-.49-.46-1.16-1.1-.56-1.98.08-.11.1-.3.08-.44-.11-.67-.37-1.34-.33-1.99.04-.61.41-1.19.65-1.8h.84c-.09-.28-.16-.56-.26-.83-.25-.73-.51-1.47-.71-2.02-1.75-.56-3.39-1.13-5.07-1.6-1-.28-2.06-.36-3.07-.62-.43-.11-.81-.42-1.18-.68-.41-.28-.79-.6-1.19-.9-.17.04-.35.09-.52.13.15-.76.3-1.52.46-2.28.18-.84.12-1.75,1.07-2.27.74-.41.81-1.1.28-1.72-.6-.7-.66-2.01-2.15-1.81-.35.05-.78-.72-1.23-1.04-.96-.68-1.92-1.37-2.93-1.95-1.03-.6-.88-1.56-.91-2.22,1.23-.98,2.35-1.85,3.51-2.77-.15-.35-.28-.66-.41-.97,1.58-.84,1.63-1.94.08-2.84-1.8-1.04-2.4-2.88-3.09-4.6-.15-.37.54-1.27,1.05-1.64.61-.44.77-.88,1-1.57.43-1.33,1.27-2.52,1.94-3.77.09.05.17.11.26.16-.11-.93-.2-1.86-.33-2.78-.02-.16-.2-.33-.34-.44-1.11-.85-1.22-1.74-.37-2.9,1.21-1.67,2.38-3.35,4.23-4.41.21-.12.36-.43.45-.68.26-.73.67-.92,1.47-.75.49.1,1.48-.18,1.54-.45.13-.56-.2-1.23-.36-1.85-.18-.66-.42-1.3-.57-1.96-.26-1.14-2.22-2.33-3.35-2.16-.62.1-1.29-.17-1.94-.2-.81-.04-1.62,0-2.68,0-.01-.02-.21-.29-.55-.75-.06.17-.07.32-.15.38-.25.21-.69.61-.77.55-.8-.6-1.48.02-2.21.14-1.15.19-2.3.34-3.44.57-.23.05-.39.38-.62.53-.6.4-1.27.71-1.82,1.17-.36.3-.57.78-.85,1.18-.38.56-.72,1.15-1.15,1.66-.13.16-.51.11-1.05.21-.17.08-.67.18-.96.48-.61.63-1.19,1.31-1.62,2.07-.22.38-.15.84-.78.95-.19.03-.26.69-.39,1.07-.85.71-1.73,1.5-2.67,2.22-.59.46-1.23.88-1.91,1.17-.3.13-.83-.02-1.14-.22-.9-.6-1.69-1.39-2.63-1.9-1.2-.65-1.3-.93-.23-1.74-1.21-.49-1.55-2.41-.6-3.4-.49.07-.8.11-.84.12-.39-.9-.6-1.87-1.15-2.55-1.06-1.29-.81-2.84-1.05-4.26-.1-.59.67-1.3.95-1.99.51-1.24-.2-2.36-1.53-2.33-.94.02-1.76.16-2.64-.54-.71-.58-1.8-.67-2.67-1.09-1.19-.57-2.32-1.26-3.49-1.89-1.09-.58-2.21-1.12-3.28-1.73-.61-.35-1.16-.82-1.75-1.2-1.47-.94-3.09-1.69-4.21-3.09-.16-.2-.18-.51-.34-1.01-1.37,1.11-2.58,2.29-3.99,3.16-1.3.81-2.16,2.09-3.41,2.86-.97.59-2.16.83-2.99,1.14-1.46,1.67-2.84,3.24-4.22,4.83-.15-.06-.36-.15-.57-.24-.02.18-.11.39-.05.53.17.36.54.67.58,1.03.05.4-.14.84-.27,1.25-.25.8-.53,1.59-.83,2.48.37.08.71.16.85.19-.3,1.05-.7,2.04-.84,3.06-.13.92.07,1.89.02,2.83-.07,1.21.61,1.92,1.5,2.52.62.41,1.27.8,1.92,1.16.74.41,1.51.78,2.52,1.3.3,1.52,1.16,3.41.11,5.65,1.06.14,2.04.27,3.08.4.15,1.07.3,1.15,1.09.56.33.85.83,1.7.94,2.61.09.68-.33,1.42-.49,2.14-.11.46-.16.94-.24,1.46-.05-.02-.25-.09-.52-.19-.2,1.77-1.32,2.63-2.94,3.1-.47.14-.93.64-1.21,1.09-.98,1.61-2.33,3.12-2.23,5.14.05,1.05.31,2.23.89,3.06.5.71.88,1.22.59,2.09-.09.26.06.61.06.6-.55.53-.96.93-1.36,1.31.73,1.56,1.75,2.93,1.24,4.76-.2.7-.08,1.52.01,2.27.16,1.32-.48,2.2-1.46,2.88-1.88,1.3-2.26,3.02-1.72,5.14.19.74.03,1.57.03,2.38.92.4,1.79.78,2.66,1.16-.04.04-.09.07-.13.11.32.32.64.64.96.96.52.54,1.33,1,1.48,1.63.38,1.56,1.77,2.14,2.81,2.68,1.58.83,1.53,2.07,1.66,3.37.07.69-.28,1.5-.03,2.06.33.72.98,1.43,1.67,1.8.78.41,1.12.69.84,1.61-.15.51.07,1.14.11,1.61,1.73-.12,3.29-.19,4.84-.35,1-.11,2.05-.23,2.97-.61.71-.3,1.21-.24,1.87,0,.47.17,1.05.01,1.58.03.69.03,1.38.11,2.07.12.33,0,.66-.08.99-.1.4-.03.81-.06,1.22-.05.47.02.95.09,1.42.12.11,0,.29-.1.33-.06.58.67,1.28.94,2.18.97.62.02,1.29.7,1.83.57,1.43-.33,1.92.43,2.35,1.5.1.25.32.45.49.67-1.29.79-1.04,4.15.35,5.15,1.16.84,2.26,1.77,3.07,3.04.32.5,1.14.64,1.69,1.03.64.45,1.22.97,1.82,1.48.08.07.17.23.15.32-.35,1.23-.3,2.45-.28,3.72.02,1.27-.93,2.55-1.5,3.94.35-.04.6-.07.86-.1-.49,1.59,1.1,3.92,2.72,4.35.5.13.96.54,1.37.91.74.66,1.48,1.17,2.52.74.13-.05.33-.05.46,0,1.23.5,2.46,1,3.67,1.54.27.12.54.37.68.63,1.37,2.55,3.74,3.47,6.41,4.09-.15.13-.34.31-.53.48,1.16.74,1.82,2.85,1.3,4.1.99-.04,2.09.89,2.44,1.82.22.59.75,1.06,1.21,1.7.77-1.8,2.23-1.78,3.69-1.89.51-.04,1.02-.36,1.48-.64.52-.33.98-.75,1.79-1.38v5.45c.5.29.99.57,1.49.86,0-.09-.02-.17-.03-.26.78-.11,1.56-.19,2.33-.35.88-.18,1.74-.54,2.62-.65.92-.11,1.87-.03,2.8-.01,1.56.03,3.11.07,4.67.13.38.01.76.09,1.14.17.23.05.52.29.66.22,1.9-1.02,2.96.72,4.03,1.52,1.03.77,1.5,2.32,1.48,3.82-.02,1.6.26,3.07,1.78,4.07,1.01.66,1.84,1.58,2.8,2.33.25.19.84.37.93.27.78-.93,1.92-.8,2.92-1.07.33-.09.72.04,1.21.09.5-1.05,1.68-1.11,2.86-1.18.51-.03,1.03-.06,1.52-.19,1.64-.46,3.24-.71,4.68.56.14.13.35.25.53.25,1.55,0,2.25,1.09,3.17,2.11.52.58,1.68.7,2.57.78.7.06,1.52-.52,2.14-.34,1.1.32,1.95-.2,2.82-.51.54-.2.86-.97,1.32-1.43.29-.3.63-.64,1.01-.75,1.11-.34,1.06-.99.69-1.86-.12-.28-.14-.66-.06-.96.34-1.33.73-2.65,1.1-3.99.96-.18,2.1-.32,3.19-.62.64-.18,1.27-.54,1.8-.95.71-.55,2.13-.71,3.07-.28.39.18.86.18,1.3.26.23.04.48.03.68.13.98.49,1.97.96,2.89,1.54.98.62,1.82.78,2.87.08.83-.55,1.82-.94,2.05-1.98.16-.74-.11-1.57,0-2.33.09-.65.39-1.29.69-1.89.3-.58.72-1.1,1.11-1.67-.26-.24-.52-.39-.65-.61-.29-.5-.81-1.1-.71-1.53.19-.83.86-1.47,1.86-1.28.88.17,1.7.36,2.42-.45.17-.19.8-.19,1.06-.02,1.58.96,3.19.74,4.83.27.15-.04.33-.08.46-.03,1.44.5,2.53-.42,3.72-.91.53-.22,1.04-.47,1.68-.76-.68-1.03-1.36-2.09-2.08-3.13-.51-.72-.54-1.26.3-1.78.52-.32,1.19-.78.33-1.41.28-.97.55-1.91.83-2.86.37.11.46.11.52.16,1.64,1.43,3.17,1.15,4.28-.73.96-1.63,1.99-3.21,3.01-4.8.02-.04.07-.07.12-.11Z"/>
    <path class="cls-1" d="M46.25,18.51c-1.18-.72-2.79-1.46-4.04-2.59-.54-.49-.36-1.78-.49-2.71-.04-.29-.09-.61-.03-.89.06-.3.24-.57.41-.84.06-.1.31-.11.32-.19.32-1.8,2.14-1.97,3.22-2.94,1.24-1.11,2.42-.14,3.39.44,1.12.67,2.17,1.58,2.7,2.9.11.27.38.55.64.68.88.44.7,1.14.56,1.86-.14.69-.66.62-1.18.84-.93.39-1.81,1.09-2.45,1.88-.71.87-1.52,1.32-3.04,1.56Z"/>
    <path class="cls-1" d="M58.17,130.97c-.58.95-1.17,1.9-1.76,2.85-1.18.37-2.42.89-3.71,1.11-.77.13-1.63-.19-2.45-.33-.43-.07-.84-.22-1.27-.27-1.07-.11-1.59-.93-1.12-1.93.56-1.2,1.25-2.37.2-3.66-.1-.12.08-.44.1-.67.05-.55.19-1.12.1-1.65-.21-1.35.36-2.13,1.95-2.43.06.33.11.65.16.92,1.39-.17,2.85-.81,3.99.34,1.17,1.18,2.14,2.57,3.16,3.89.11.14-.05.45-.01.67.06.36.17.72.27,1.08.13.02.26.05.4.07Z"/>
    <path class="cls-1" d="M24.41,96.26c.29-.09.7-.08.86-.28.91-1.17,2.17-.75,3.29-.72.41.01.94.46,1.18.85.56.92,1.47,1.3,2.51.89,1.07-.43,1.66-.04,2.04,1.01.31.85.42,1.56-.18,2.28-.07.08-.09.22-.1.34q-.37,2.48-1.84,4.18c-.57.66-2.15.63-2.8,0-.4-.39-.9-.95-1.36-.95-1.42-.02-2.06-1.08-3.01-1.78-.52-.38-1.46-.24-2.2-.22-.4.01-.79.34-1.19.39-.52.06-1.44.14-1.52-.05-.33-.84-.86-1.68-.22-2.72.62-1.01,1.08-2,2.49-2.04.35-.01.68-.5,1.03-.77.29-.23.57-.46.85-.68.06.1.13.2.19.29Z"/>
  </g>
</svg>